<?xml version="1.0" encoding="UTF-8"?>
<!-- Created with Inkscape (http://www.inkscape.org/) -->
<svg width="20.475mm" height="26.185mm" version="1.1" viewBox="0 -5 20.475 26.185" xmlns="http://www.w3.org/2000/svg">
 <g transform="translate(-33.617 -235.17)">
  <g fill="#fff">
   <g stroke="#7b0041">
    <path d="m51.143 25.796s-9.3224-13.395-18.808-0.82684c-9.4859 12.568-0.73709 19.77 2.7804 20.009 2.8009 0.19054 6.2149 3.9688 3.9252 9.7567-2.3368 5.9068 5.3972 21.167 15.374 16.537 9.9766-4.6303 16.028-10.749 15.701-17.198-0.33221-6.55-8.3411-10.914-10.304-10.914s-9.4859-5.4571-7.0327-8.4337" stroke-width=".26313"/>
    <g stroke-width=".26458">
     <path d="m54.528 36.38-2.0257-1.7363z"/>
     <path d="m52.503 34.685-2.2324 0.9095z"/>
     <path d="m102.78 21.749s-9.0035-6.4311-13.915 0.70158 0.11693 12.862 2.1047 12.044c0 0 4.5602 3.9756 1.0524 9.0035-3.6743 5.2665-1.4031 12.628 4.0925 12.862 5.4957 0.23386 4.911 1.1693 12.511-1.8709 7.6004-3.0402 7.7173-11.693 4.4433-12.278-3.274-0.58465-4.7941-4.5602-4.5602-7.1327 0.23386-2.5724-1.8024-7.1209-2.2701-7.4717"/>
     <path d="m108.15 28.277-1.8603-0.57877z"/>
     <path d="m105.58 28.98 0.74413-1.2816z"/>
     <path d="m146.02 16.536s-5.2916-4.5475-8.7642-0.16536c-1.5803 1.9942-2.4009 3.0016-2.0816 4.0802 0.38225 1.2916 2.3599 2.4809 2.4951 1.6248 0.24805-1.5709 3.5553 1.0749 2.6458 1.4883-0.9095 0.41341-1.4056 5.6223 0.16536 5.6223 1.5709 0 6.2838 1.819 8.5162-0.82682 2.2324-2.6458 2.1497-4.0514 0.49609-5.457s-1.3229-2.2324-3.4726-2.4804c-2.1497-0.24804-0.16536-2.067-0.16536-2.067"/>
     <path d="m126.17 33.968s-2.8634-3.2575-6.1972-0.40925c-1.7901 1.5293-0.93543 4.5602-0.93543 4.5602s1.258 2.2488 0.0585 3.6248c-2.9582 3.3937-1.0473 7.0808 3.8 7.0918 2.3162 0.0052 5.5206 1.1678 7.1914-2.1223 2.1316-4.1975-0.70157-5.3787-0.70157-5.3787s-1.6895-0.33951-2.8063-1.5785c-1.3672-1.5168-0.17539-3.0986-0.17539-3.0986"/>
     <path d="m127.64 37.505-1.3885-0.93544z"/>
     <path d="m126.37 36.584-1.4032 0.67234z"/>
     <path d="m177.27 10.583s-4.2168-2.3151-8.6816-0.57877c-4.4648 1.7363-3.2839 5.2603-2.1497 7.4413 1.0749 2.067 3.7659 3.6995 2.6458 7.8547-1.1765 4.3646-5.7877 12.816 2.8112 15.131 10.085 2.7153 17.074 2.919 17.611-8.3508 0.24804-5.2089-8.6816-15.627-8.6816-15.627"/>
     <path d="m182.3 16.609-1.5399-0.21704z"/>
     <path d="m180.36 17.373 0.53743-1.0542z"/>
     <path d="m174.09 57.3s-8.1951-4.9594-15.184-3.162c-15.26 3.9247-18.958 4.2695-15.618 21.098 2.524 12.719 7.6869 9.3051 12.474 13.09 4.6937 3.7108 2.1232 12.097 7.8504 15.79 8.9974 5.8026 28.112-1.8498 26.397-8.3517-2.8063-10.641-12.628-12.278-11.693-19.41 0.93543-7.1327-1.4032-8.7697-1.4032-8.7697"/>
     <ellipse cx="96.817" cy="167.33" rx="47.473" ry="55.775"/>
    </g>
   </g>
   <ellipse cx="131.08" cy="127.69" rx="8.7697" ry="14.499" stroke="#fff" stroke-width=".26458"/>
  </g>
  <g fill="none">
   <path transform="translate(4.7955 4.4648)" d="m139.4 249.7c1.625-0.85398 1.9529 1.7692 1.4194 2.7009-1.4458 2.5249-5.0554 1.8804-6.8212 0.13781-3.1586-3.1171-2.0275-8.3084 1.1438-10.942 4.654-3.8642 11.611-2.1936 15.062 2.4253 4.5997 6.1563 2.3687 14.931-3.7069 19.182-7.6455 5.3491-18.261 2.5485-23.302-4.9884-6.106-9.1283-2.7312-21.595 6.27-27.423 10.608-6.8674 24.933-2.9157 31.543 7.5516 7.6316 12.085 3.1014 28.273-8.8331 35.663-13.561 8.3977-31.614 3.2879-39.784-10.115-9.1652-15.036-3.475-34.956 11.396-43.904 16.51-9.9337 38.299-3.6625 48.024 12.678" stroke="#000" stroke-width=".26458"/>
   <path d="m144.2 254.16c-1.3348-0.63012 0.19082-2.1102 1.0473-2.2186 2.321-0.2937 3.6542 2.336 3.3899 4.3132-0.47272 3.5368-4.3535 5.3231-7.5791 4.5613-4.7337-1.118-7.0281-6.3936-5.7326-10.845 1.7267-5.9331 8.441-8.7476 14.111-6.9039 7.1351 2.3202 10.475 10.492 8.0752 17.377-2.906 8.3388-12.544 12.206-20.643 9.2465-9.5436-3.4874-13.94-14.598-10.418-23.909 4.0661-10.749 16.653-15.675 27.175-11.589 11.956 4.6429 17.412 18.708 12.76 30.441-5.2185 13.162-20.763 19.15-33.706 13.932-14.369-5.7931-20.888-22.819-15.103-36.972" stroke="#000" stroke-width=".26458"/>
   <path d="m46.023 234.77c0.24074-6.0744-11.945-5.9185-12.269 0.23284-0.21494 4.0907 6.6576 4.5453 4.4648 9.9218-2.0449 5.0137-1.2817 8.969 3.1419 10.726 3.6083 1.4332 10.067 0.2448 12.154-4.525 2.3151-5.2916-5.1664-11.245-5.1664-11.245-0.02819 2.047 0.02923-0.11693 0.02923-0.11693 2.6027-0.3062-0.13154 0-0.13154 0" stroke="#b35555" stroke-width=".265"/>
  </g>
 </g>
</svg>
