<?xml version="1.0" encoding="UTF-8" standalone="no"?>
<!-- Created with Inkscape (http://www.inkscape.org/) -->

<svg
   width="20.475269mm"
   height="26.185152mm"
   viewBox="0 -5 20.475269 26.185152"
   version="1.1"
   id="svg1"
   inkscape:version="1.4 (86a8ad7, 2024-10-11)"
   sodipodi:docname="logo_mauve1.svg"
   xmlns:inkscape="http://www.inkscape.org/namespaces/inkscape"
   xmlns:sodipodi="http://sodipodi.sourceforge.net/DTD/sodipodi-0.dtd"
   xmlns="http://www.w3.org/2000/svg"
   xmlns:svg="http://www.w3.org/2000/svg">
  <sodipodi:namedview
     id="namedview1"
     pagecolor="#ffffff"
     bordercolor="#000000"
     borderopacity="0.25"
     inkscape:showpageshadow="false"
     inkscape:pageopacity="0.0"
     inkscape:pagecheckerboard="0"
     inkscape:deskcolor="#d1d1d1"
     inkscape:document-units="mm"
     inkscape:zoom="4.5255332"
     inkscape:cx="2.4306528"
     inkscape:cy="49.165477"
     inkscape:window-width="1600"
     inkscape:window-height="837"
     inkscape:window-x="-8"
     inkscape:window-y="-8"
     inkscape:window-maximized="1"
     inkscape:current-layer="layer1"
     showborder="false"
     borderlayer="false"
     inkscape:antialias-rendering="false" />
  <defs
     id="defs1" />
  <g
     inkscape:label="Calque 1"
     inkscape:groupmode="layer"
     id="layer1"
     transform="translate(-33.617494,-235.16662)">
    <path
       style="fill:#ffffff;stroke:#7b0041;stroke-width:0.263132"
       d="m 51.142874,25.79604 c 0,0 -9.322353,-13.394751 -18.808256,-0.826836 -9.485906,12.567915 -0.73709,19.77015 2.78035,20.009443 2.800877,0.190545 6.214902,3.968816 3.925201,9.756672 -2.336752,5.906791 5.397152,21.167015 15.373705,16.53673 9.976555,-4.630285 16.027908,-10.748875 15.700807,-17.1982 -0.332208,-6.550037 -8.341053,-10.914241 -10.303654,-10.914241 -1.962601,0 -9.485902,-5.457123 -7.032652,-8.433733"
       id="path1"
       sodipodi:nodetypes="cssssssc" />
    <path
       style="fill:#ffffff;stroke:#7b0041;stroke-width:0.264583"
       d="M 54.528373,36.379808 52.502678,34.643499 Z"
       id="path2" />
    <path
       style="fill:#ffffff;stroke:#7b0041;stroke-width:0.264583"
       d="M 52.502678,34.68484 50.27028,35.594335 Z"
       id="path3" />
    <path
       style="fill:#ffffff;stroke:#7b0041;stroke-width:0.264583"
       d="m 102.78071,21.748818 c 0,0 -9.003546,-6.431102 -13.91457,0.701575 -4.911024,7.132677 0.116931,12.862205 2.104724,12.043701 0,0 4.560235,3.975592 1.052364,9.003544 -3.674278,5.26647 -1.403149,12.628346 4.09252,12.862204 5.495672,0.233858 4.911032,1.169292 12.511422,-1.870866 7.60039,-3.040157 7.71731,-11.692913 4.4433,-12.277559 -3.27402,-0.584646 -4.79409,-4.560236 -4.56024,-7.132677 0.23386,-2.572441 -1.80236,-7.120925 -2.27008,-7.471712"
       id="path4"
       sodipodi:nodetypes="cscsssssc" />
    <path
       style="fill:#ffffff;stroke:#7b0041;stroke-width:0.264583"
       d="m 108.14725,28.277034 -1.86033,-0.578771 z"
       id="path5" />
    <path
       style="fill:#ffffff;stroke:#7b0041;stroke-width:0.264583"
       d="m 105.58413,28.979825 0.74413,-1.281562 z"
       id="path6" />
    <path
       style="fill:#ffffff;stroke:#7b0041;stroke-width:0.264583"
       d="m 146.01532,16.536277 c 0,0 -5.29162,-4.547481 -8.76423,-0.165363 -1.58029,1.994185 -2.40086,3.001589 -2.08163,4.080182 0.38225,1.291556 2.35988,2.480883 2.49506,1.624833 0.24805,-1.570943 3.55529,1.074858 2.6458,1.488265 -0.9095,0.413407 -1.40559,5.622335 0.16536,5.622335 1.57094,0 6.28378,1.818988 8.51618,-0.826816 2.2324,-2.645803 2.14972,-4.051387 0.49609,-5.45697 -1.65363,-1.405583 -1.3229,-2.232397 -3.47262,-2.480442 -2.14971,-0.248044 -0.16536,-2.067034 -0.16536,-2.067034"
       id="path7"
       sodipodi:nodetypes="cssssssssc" />
    <path
       style="fill:#ffffff;stroke:#7b0041;stroke-width:0.264583"
       d="m 126.16654,33.967914 c 0,0 -2.86339,-3.257456 -6.19725,-0.409252 -1.79012,1.529345 -0.93543,4.560236 -0.93543,4.560236 0,0 1.25796,2.24877 0.0585,3.624804 -2.9582,3.3937 -1.04731,7.08081 3.79999,7.091785 2.31616,0.0052 5.52057,1.16776 7.19135,-2.122299 2.13161,-4.197524 -0.70157,-5.37874 -0.70157,-5.37874 0,0 -1.68947,-0.339508 -2.80631,-1.578544 -1.36724,-1.516826 -0.17539,-3.09862 -0.17539,-3.09862"
       id="path8"
       sodipodi:nodetypes="cscssscsc" />
    <path
       style="fill:#ffffff;stroke:#7b0041;stroke-width:0.264583"
       d="m 127.64276,37.50502 -1.38853,-0.935435 z"
       id="path9" />
    <path
       style="fill:#ffffff;stroke:#7b0041;stroke-width:0.264583"
       d="m 126.37116,36.584202 -1.40315,0.672343 z"
       id="path10" />
    <path
       style="fill:#ffffff;stroke:#7b0041;stroke-width:0.264583"
       d="m 177.26889,10.583217 c 0,0 -4.21676,-2.3150787 -8.68155,-0.57877 -4.46479,1.736309 -3.28386,5.260285 -2.14972,7.441325 1.07486,2.067034 3.76591,3.699455 2.64581,7.854731 -1.17651,4.364551 -5.7877,12.815614 2.81116,15.130693 10.08528,2.715269 17.07449,2.919016 17.61114,-8.350819 0.24804,-5.208928 -8.68155,-15.626782 -8.68155,-15.626782"
       id="path11"
       sodipodi:nodetypes="csssssc" />
    <path
       style="fill:#ffffff;stroke:#7b0041;stroke-width:0.264583"
       d="m 182.30211,16.608623 -1.53994,-0.217039 z"
       id="path12" />
    <path
       style="fill:#ffffff;stroke:#7b0041;stroke-width:0.264583"
       d="m 180.35911,17.373426 0.53743,-1.054188 z"
       id="path13" />
    <path
       style="fill:#ffffff;stroke:#7b0041;stroke-width:0.264583"
       d="m 174.09086,57.300143 c 0,0 -8.19508,-4.959435 -15.18417,-3.161954 -15.26038,3.924722 -18.95791,4.269513 -15.61847,21.098111 2.52404,12.719492 7.68691,9.305128 12.47442,13.090053 4.6937,3.710756 2.12318,12.096717 7.85041,15.790297 8.9974,5.80256 28.11156,-1.84984 26.39679,-8.35169 -2.8063,-10.640552 -12.62835,-12.277558 -11.69291,-19.410235 0.93543,-7.132677 -1.40315,-8.769686 -1.40315,-8.769686"
       id="path14"
       sodipodi:nodetypes="cssssssc" />
    <ellipse
       style="fill:#ffffff;stroke:#7b0041;stroke-width:0.264583"
       id="path15"
       cx="96.817322"
       cy="167.32559"
       rx="47.473228"
       ry="55.775196" />
    <ellipse
       style="fill:#ffffff;stroke:#ffffff;stroke-width:0.264583;stroke-opacity:1"
       id="path16"
       cx="131.07756"
       cy="127.68661"
       rx="8.7696848"
       ry="14.499212" />
    <path
       sodipodi:type="spiral"
       style="fill:none;fill-rule:evenodd;stroke:#000000;stroke-width:0.264583"
       id="path17"
       sodipodi:cx="139.4008"
       sodipodi:cy="249.69777"
       sodipodi:expansion="1"
       sodipodi:revolution="3"
       sodipodi:radius="36.613945"
       sodipodi:argument="-19.333403"
       sodipodi:t0="0"
       d="m 139.4008,249.69777 c 1.62504,-0.85398 1.95288,1.7692 1.41937,2.70092 -1.4458,2.52492 -5.05543,1.88038 -6.82122,0.13781 -3.15858,-3.11706 -2.02749,-8.30838 1.14376,-10.94151 4.65395,-3.86421 11.61075,-2.19359 15.06179,2.42533 4.59971,6.15629 2.36867,14.93134 -3.70688,19.18208 -7.64546,5.34912 -18.2608,2.54854 -23.30237,-4.98845 -6.10602,-9.12831 -2.73124,-21.59528 6.27001,-27.42266 10.60767,-6.86737 24.93289,-2.91572 31.54295,7.55157 7.63156,12.08491 3.10138,28.27261 -8.83314,35.66324 -13.56076,8.3977 -31.61378,3.28787 -39.78352,-10.1147 -9.16521,-15.03566 -3.47497,-34.95603 11.39626,-43.90381 16.50987,-9.93373 38.29909,-3.6625 48.0241,12.67782"
       transform="translate(4.7955202,4.4647947)" />
    <path
       sodipodi:type="spiral"
       style="fill:none;fill-rule:evenodd;stroke:#000000;stroke-width:0.264583"
       id="path18"
       sodipodi:cx="144.19633"
       sodipodi:cy="254.16257"
       sodipodi:expansion="1"
       sodipodi:revolution="3"
       sodipodi:radius="29.440611"
       sodipodi:argument="-21.55011"
       sodipodi:t0="0"
       d="m 144.19633,254.16257 c -1.33485,-0.63012 0.19082,-2.11024 1.0473,-2.21862 2.32102,-0.2937 3.65421,2.336 3.38994,4.31321 -0.47272,3.53678 -4.35352,5.3231 -7.57913,4.56126 -4.73372,-1.11803 -7.02808,-6.39358 -5.73257,-10.84505 1.72671,-5.9331 8.441,-8.74765 14.11096,-6.90389 7.13506,2.32019 10.4746,10.49179 8.07521,17.37688 -2.906,8.33876 -12.54444,12.2058 -20.64279,9.24652 -9.54363,-3.4874 -13.93966,-14.59823 -10.41785,-23.9087 4.06607,-10.7493 16.65281,-15.67528 27.17462,-11.58916 11.95555,4.6429 17.41215,18.70792 12.76048,30.44053 -5.21847,13.16222 -20.76343,19.14993 -33.70645,13.9318 -14.3692,-5.7931 -20.88837,-22.81924 -15.10312,-36.97236" />
    <path
       style="fill:none;stroke:#dabfff;stroke-width:0.765;stroke-miterlimit:11.6;stroke-dasharray:none;stroke-opacity:1"
       d="m 46.223824,234.76832 c 0.24074,-6.07442 -11.94545,-5.91852 -12.26866,0.23284 -0.214938,4.09072 6.457126,4.54531 4.264304,9.92177 -2.044862,5.01368 -1.281721,8.96903 3.141892,10.72609 3.608283,1.43321 10.067381,0.2448 12.154164,-4.52499 2.315078,-5.29161 -5.011342,-10.67623 -5.011342,-10.67623 -0.02819,2.047 -0.0018,-0.41665 -0.0018,-0.41665 2.602715,-0.3062 -0.100539,0.0517 -0.100539,0.0517"
       id="path23"
       sodipodi:nodetypes="cssssccc" />
  </g>
</svg>
